<?xml version="1.0" encoding="UTF-8"?>
<svg id="Layer_1" xmlns="http://www.w3.org/2000/svg" version="1.1" viewBox="0 0 595.28 841.89">
  <!-- Generator: Adobe Illustrator 29.5.1, SVG Export Plug-In . SVG Version: 2.1.0 Build 141)  -->
  <defs>
    <style>
      .st0 {
        fill: #ed1849;
      }

      .st1 {
        fill: #ea5573;
      }

      .st2, .st3 {
        fill: #231f20;
      }

      .st3 {
        stroke: #231f20;
        stroke-miterlimit: 10;
      }
    </style>
  </defs>
  <path class="st3" d="M199.6,398.11v8.65c-.08-1.43-.12-2.87-.12-4.32s.04-2.9.12-4.32Z"/>
  <path class="st3" d="M302.74,393.65v160.38c-46.38,0-83.76-37.61-83.76-84v-76.38h83.76Z"/>
  <path class="st3" d="M389.98,393.65v151.84c-7.32,3.27-14.91,6.12-22.74,8.54h-52.49v-160.38h75.23Z"/>
  <path class="st3" d="M492.82,393.65h-81.77c-5.05-47.13-50.38-84.02-105.55-84.02s-103.32,39.23-105.9,88.47v-4.46h-83.36c2.92-88.83,86.1-160.05,188.29-160.05s185.37,71.22,188.29,160.05Z"/>
  <path class="st0" d="M492.91,398.5c0,50.04-25.46,94.87-65.66,125.1-10.79-14.14-17.2-31.84-17.2-51.03v-54.62c-2.9,15.06-9.94,28.9-20.07,40.57v-64.87h-75.23v101.24c-3.05.24-6.13.35-9.25.35-.92,0-1.84,0-2.75-.03v-101.56h-83.76v62.43c-11.39-14.05-18.42-31-19.38-49.32v-8.65c2.57-49.24,49-88.47,105.9-88.47s100.5,36.88,105.55,84.02h81.77c.06,1.61.09,3.23.09,4.84Z"/>
  <path class="st0" d="M199.48,402.44c0,1.45.04,2.9.12,4.32v65.81c0,19.32-6.48,37.11-17.41,51.3-40.41-30.23-66.03-75.19-66.03-125.38,0-1.62.02-3.23.09-4.84h83.36v4.46c-.08,1.43-.12,2.87-.12,4.32Z"/>
  <path class="st1" d="M199.6,398.11v8.65c-.08-1.43-.12-2.87-.12-4.32s.04-2.9.12-4.32Z"/>
  <path class="st1" d="M302.74,393.65v101.56c-34.58-.77-65.05-16.04-83.76-39.13v-62.43h83.76Z"/>
  <path class="st1" d="M389.98,393.65v64.87c-17.61,20.29-44.55,34.05-75.23,36.36v-101.24h75.23Z"/>
  <g>
    <path class="st2" d="M116.16,398.5c0-1.62.02-3.23.09-4.84h-.41v147.69c-26.08,0-48.7-14.54-60.23-36l-13.62,7.15c14.08,26.31,41.77,44.08,73.85,44.08,27.06,0,51.07-12.81,66.36-32.7-40.41-30.23-66.03-75.19-66.03-125.38ZM199.48,402.44c0,1.45.04,2.9.12,4.32v-8.65c-.08,1.43-.12,2.87-.12,4.32Z"/>
    <path class="st2" d="M218.98,393.65v76.38c0,46.39,37.38,84,83.76,84v-160.38h-83.76ZM314.75,393.65v160.38h75.23v-160.38h-75.23Z"/>
    <path class="st2" d="M554.05,505.35c-11.54,21.46-34.16,36-60.23,36v-147.69h-.99c.06,1.61.09,3.23.09,4.84,0,50.04-25.46,94.87-65.66,125.1,15.28,20.05,39.38,32.97,66.57,32.97,32.08,0,59.77-17.77,73.84-44.08l-13.61-7.15Z"/>
  </g>
</svg>