<?xml version="1.0" encoding="UTF-8"?>
<svg id="Layer_1" xmlns="http://www.w3.org/2000/svg" xmlns:xlink="http://www.w3.org/1999/xlink" version="1.1" viewBox="0 0 250 100">
  <!-- Generator: Adobe Illustrator 29.5.1, SVG Export Plug-In . SVG Version: 2.1.0 Build 141)  -->
  <defs>
    <style>
      .st0 {
        fill: #ea5573;
      }

      .st1 {
        filter: url(#outer-glow-1);
      }

      .st2, .st3 {
        fill: #231f20;
      }

      .st3 {
        stroke: #231f20;
        stroke-miterlimit: 10;
      }
    </style>
    <filter id="outer-glow-1" x="50" y="-2" width="143" height="99" filterUnits="userSpaceOnUse">
      <feOffset dx="0" dy="0"/>
      <feGaussianBlur result="blur" stdDeviation="5"/>
      <feFlood flood-color="#f9bfac" flood-opacity=".75"/>
      <feComposite in2="blur" operator="in"/>
      <feComposite in="SourceGraphic"/>
    </filter>
  </defs>
  <g class="st1">
    <path class="st3" d="M99.52,48.19v1.85c-.02-.3-.03-.61-.03-.92s0-.62.03-.92h0Z"/>
    <path class="st2" d="M162.18,47.24l-17.6.04c-1.08-10.05-10.7-17.96-22.47-17.96s-22.04,8.37-22.59,18.87v-.95l-17.82.02c.62-18.95,18.4-34.16,40.2-34.16s39.65,15.2,40.27,34.15h0Z"/>
    <path class="st0" d="M162.04,48.31c0,10.67-5.43,20.24-14.01,26.69-2.3-3.02-3.67-6.79-3.67-10.89v-11.65c-.62,3.21-2.12,6.17-4.28,8.66v-13.84h-16.05v21.6c-.65.05-1.31.08-1.97.08h-.59v-21.67h-17.87v13.32c-2.43-3-3.93-6.61-4.13-10.52v-1.85c.55-10.51,10.45-18.87,22.59-18.87s21.44,7.87,22.52,17.92h17.44c0,.34.02.69.02,1.03h0Z"/>
    <path class="st0" d="M99.5,49.11c0,.31,0,.62.03.92v14.04c0,4.12-1.38,7.92-3.71,10.94-8.62-6.45-14.09-16.04-14.09-26.75,0-.34,0-.69.02-1.03h17.78v.95c-.02.3-.03.61-.03.92h0Z"/>
    <path class="st0" d="M99.52,48.19v1.85c-.02-.3-.03-.61-.03-.92s0-.62.03-.92h0Z"/>
    <path class="st0" d="M121.53,47.24v21.67c-7.38-.16-13.88-3.42-17.87-8.35v-13.32s17.87,0,17.87,0Z"/>
    <path class="st0" d="M140.14,47.24v13.84c-3.76,4.33-9.5,7.26-16.05,7.76v-21.6s16.05,0,16.05,0Z"/>
    <g>
      <path class="st2" d="M81.76,48.14c0-.34.02-.57.03-.91h-.09l-.02,31.33c-5.55,0-10.37-3.1-12.83-7.67l-2.9,1.52c3,5.6,8.9,9.39,15.73,9.39,5.76,0,10.88-2.73,14.13-6.96-8.61-6.44-14.06-16.01-14.06-26.7h0Z"/>
      <path class="st2" d="M103.6,47.28l.05,16.1c0,9.88,7.96,17.89,17.84,17.89v-34.16s-17.89.17-17.89.17ZM124.05,47.1v34.16h16.02v-34.16s-16.02,0-16.02,0Z"/>
      <path class="st2" d="M175.02,70.89c-2.46,4.57-7.27,7.67-12.83,7.67v-31.33h-.22c0,.34.03.56.03.91,0,10.66-5.42,20.2-13.98,26.64,3.25,4.27,8.39,7.02,14.18,7.02,6.83,0,12.73-3.78,15.73-9.39l-2.9-1.52h-.01Z"/>
    </g>
  </g>
</svg>